<svg width="30" height="30" viewBox="0 0 30 30" fill="none" xmlns="http://www.w3.org/2000/svg">
<path d="M14.142 21V12.2727H15.8409V21H14.142ZM15 10.9261C14.7045 10.9261 14.4508 10.8277 14.2386 10.6307C14.0303 10.4299 13.9261 10.1913 13.9261 9.91477C13.9261 9.63447 14.0303 9.39583 14.2386 9.19886C14.4508 8.99811 14.7045 8.89773 15 8.89773C15.2955 8.89773 15.5473 8.99811 15.7557 9.19886C15.9678 9.39583 16.0739 9.63447 16.0739 9.91477C16.0739 10.1913 15.9678 10.4299 15.7557 10.6307C15.5473 10.8277 15.2955 10.9261 15 10.9261Z" fill="white"/>
<circle cx="15" cy="15" r="14.5" stroke="white"/>
</svg>
